# xmcd
#
# Track frame offsets:
#	150
#	14779
#	28224
#	42393
#	52398
#	64347
#	76776
#	89052
#	103781
#	117364
#	128344
#
# Disc length: 1944 seconds
#
# Revision: 0
# Processed by: cddbd v1.5.2PL0 Copyright (c) Steve Scherf et al.
# Submitted via: EasyCDDAExtractor 8.0.2.1
#
DISCID=9e07960b
DTITLE=Barbi Benton - Something New
DYEAR=1976
DGENRE=Country
TTITLE0=Something New
TTITLE1=Needing You
TTITLE2=In The Winter
TTITLE3=#1 With A Heartache
TTITLE4=Lucky One
TTITLE5=Riding On A Rainbow
TTITLE6=Staying Power
TTITLE7=Ride Baby Ride
TTITLE8=San Diego Serenade
TTITLE9=He's A rebel
TTITLE10=Thinking Of you
EXTD=
EXTT0=
EXTT1=
EXTT2=
EXTT3=
EXTT4=
EXTT5=
EXTT6=
EXTT7=
EXTT8=
EXTT9=
EXTT10=
PLAYORDER=
